<svg xmlns="http://www.w3.org/2000/svg" viewBox="0 0 747.27 297.32"><defs><style>.cls-1,.cls-2{fill:none;stroke-miterlimit:10;stroke-width:13px;}.cls-1{stroke:#2d2d30;}.cls-2{stroke:#fff;}.cls-3{font-size:53.56px;font-family:BrandonGrotesque-Thin, Brandon Grotesque;letter-spacing:0.2em;}.cls-10,.cls-11,.cls-3,.cls-5,.cls-9{fill:#2d2d30;}.cls-4{letter-spacing:0.2em;}.cls-5{font-size:47.3px;font-family:Montserrat-Medium, Montserrat;letter-spacing:-0.01em;}.cls-6{letter-spacing:-0.02em;}.cls-7{letter-spacing:-0.01em;}.cls-8{letter-spacing:-0.02em;}.cls-10{fill-rule:evenodd;}.cls-11{font-size:14.31px;font-family:Montserrat-Regular, Montserrat;letter-spacing:0.3em;}.cls-12{letter-spacing:0.3em;}.cls-13{letter-spacing:0.29em;}</style></defs><title>Asset 1mag_logo</title><g id="Layer_2" data-name="Layer 2"><g id="Camada_1" data-name="Camada 1"><line class="cls-1" x1="70.34" y1="10.4" x2="70.34" y2="286.4"/><line class="cls-1" x1="488.43" y1="6.5" x2="63.84" y2="6.5"/><line class="cls-1" x1="259.54" y1="290.82" x2="63.84" y2="290.82"/><line class="cls-2" x1="676.93" y1="286.92" x2="676.93" y2="10.92"/><line class="cls-2" x1="258.84" y1="290.82" x2="683.43" y2="290.82"/><line class="cls-2" x1="487.74" y1="6.5" x2="683.43" y2="6.5"/><text class="cls-3" transform="translate(191.58 201.84)">gast<tspan class="cls-4" x="128.34" y="0">r</tspan><tspan x="155.71" y="0">onomia</tspan></text><text class="cls-5" transform="translate(145.23 152.5)">MAR<tspan class="cls-6" x="112.9" y="0">C</tspan><tspan class="cls-7" x="145.97" y="0">OS AN</tspan><tspan class="cls-8" x="298.7" y="0">T</tspan><tspan x="325.56" y="0">ONIO</tspan></text><circle class="cls-9" cx="526" cy="193.3" r="1.96"/><circle class="cls-9" cx="505.84" cy="193.3" r="1.96"/><circle class="cls-9" cx="454.36" cy="193.3" r="1.96"/><circle class="cls-9" cx="415.82" cy="193.3" r="1.96"/><circle class="cls-9" cx="379.35" cy="193.3" r="1.96"/><circle class="cls-9" cx="340.92" cy="193.3" r="1.96"/><circle class="cls-9" cx="313.43" cy="193.3" r="1.96"/><circle class="cls-9" cx="286.54" cy="193.3" r="1.96"/><circle class="cls-9" cx="255.19" cy="193.3" r="1.96"/><circle class="cls-9" cx="221.17" cy="193.3" r="1.96"/><path class="cls-10" d="M313.36,83.14l15.1,1.34V81.8l-15.1,1.34Zm105.46,1.34,15.09-1.34h0L418.82,81.8Z"/><text class="cls-11" transform="translate(351.13 87.65)">2<tspan class="cls-12" x="12.36" y="0">0</tspan><tspan class="cls-13" x="26.12" y="0">0</tspan><tspan class="cls-12" x="39.77" y="0">7</tspan></text></g></g></svg>