<svg xmlns="http://www.w3.org/2000/svg" viewBox="0 0 30.9 30.9"><defs><style>.cls-1{fill:#292929;}.cls-2{fill:#fff;}</style></defs><title>Asset 6insta_dot</title><g id="Layer_2" data-name="Layer 2"><g id="Camada_1" data-name="Camada 1"><circle class="cls-1" cx="15.45" cy="15.45" r="15.45"/><path class="cls-2" d="M18.9,5.78H12a5.74,5.74,0,0,0-5.75,5.74v6.89A5.74,5.74,0,0,0,12,24.16H18.9a5.74,5.74,0,0,0,5.74-5.75V11.52A5.74,5.74,0,0,0,18.9,5.78Zm4,12.63a4,4,0,0,1-4,4H12a4,4,0,0,1-4-4V11.52a4,4,0,0,1,4-4H18.9a4,4,0,0,1,4,4Z"/><path class="cls-2" d="M15.45,10.37a4.6,4.6,0,1,0,4.6,4.6A4.59,4.59,0,0,0,15.45,10.37Zm0,7.47A2.87,2.87,0,1,1,18.32,15,2.88,2.88,0,0,1,15.45,17.84Z"/><path class="cls-2" d="M20.39,9.42a.61.61,0,1,1-.61.61A.61.61,0,0,1,20.39,9.42Z"/></g></g></svg>