<svg xmlns="http://www.w3.org/2000/svg" viewBox="0 0 30.9 30.9"><defs><style>.cls-1{fill:#292929;}.cls-2{fill:#fff;}</style></defs><title>Asset 5whats_dot</title><g id="Layer_2" data-name="Layer 2"><g id="Camada_1" data-name="Camada 1"><circle class="cls-1" cx="15.45" cy="15.45" r="15.45"/><path class="cls-2" d="M25.74,14.46a9.78,9.78,0,0,0-19.55-.18c0,.15,0,.29,0,.43a9.52,9.52,0,0,0,1.41,5L5.82,24.93l5.42-1.72a9.79,9.79,0,0,0,14.5-8.5ZM16,22.87a8.23,8.23,0,0,1-4.52-1.35l-3.16,1,1-3a8,8,0,0,1-1.57-4.78,6.85,6.85,0,0,1,0-.79,8.23,8.23,0,0,1,16.38.15c0,.21,0,.43,0,.64A8.2,8.2,0,0,1,16,22.87Z"/><path id="_Path_" data-name="&lt;Path&gt;" class="cls-2" d="M20.44,16.67c-.24-.12-1.42-.7-1.64-.77s-.38-.12-.54.11-.62.78-.76.94-.27.18-.51.06a6.51,6.51,0,0,1-1.93-1.18,7.21,7.21,0,0,1-1.34-1.65c-.14-.24,0-.37.11-.49a5.25,5.25,0,0,0,.36-.41l.09-.12.15-.28a.44.44,0,0,0,0-.42c-.06-.12-.54-1.29-.74-1.76s-.4-.4-.54-.4l-.46,0a.88.88,0,0,0-.64.3,2.65,2.65,0,0,0-.84,2,2.75,2.75,0,0,0,.13.81A5.41,5.41,0,0,0,12.17,15a9.78,9.78,0,0,0,4.1,3.59c2.43,1,2.43.64,2.87.6a2.44,2.44,0,0,0,1.62-1.13A2,2,0,0,0,20.9,17C20.84,16.85,20.68,16.79,20.44,16.67Z"/></g></g></svg>