<svg xmlns="http://www.w3.org/2000/svg" viewBox="0 0 619.6 297.32"><defs><style>.cls-1,.cls-2{fill:none;stroke-miterlimit:10;stroke-width:13px;}.cls-1{stroke:#2d2d30;}.cls-2{stroke:#fff;}.cls-3,.cls-4{fill:#2d2d30;}.cls-4{fill-rule:evenodd;}</style></defs><title>Asset 20logo_dot</title><g id="Layer_2" data-name="Layer 2"><g id="Camada_1" data-name="Camada 1"><line class="cls-1" x1="6.5" y1="10.4" x2="6.5" y2="286.4"/><line class="cls-1" x1="424.6" y1="6.5" y2="6.5"/><line class="cls-1" x1="195.7" y1="290.82" y2="290.82"/><line class="cls-2" x1="613.1" y1="286.92" x2="613.1" y2="10.92"/><line class="cls-2" x1="195" y1="290.82" x2="619.6" y2="290.82"/><line class="cls-2" x1="423.9" y1="6.5" x2="619.6" y2="6.5"/><path class="cls-3" d="M133.31,193.91a8.93,8.93,0,0,1-1.61-5.41,8.46,8.46,0,0,1,8.89-8.62H150a.37.37,0,0,1,.37.38v.21a.36.36,0,0,1-.37.37h-4.88c2,1.08,4.29,3,4.29,7.66a8.51,8.51,0,0,1-8.79,8.68,8.73,8.73,0,0,1-6.64-2.52,5,5,0,0,0-3.11,4.5,3.52,3.52,0,0,0,3.54,3.64h9.85c4.66,0,7.82,2,7.82,6.86,0,4.6-4.23,8.78-10.81,8.78-7.34,0-10.61-4.77-10.61-8.46a7.42,7.42,0,0,1,3.64-6.27,4.51,4.51,0,0,1-4.39-4.55A5.84,5.84,0,0,1,133.31,193.91Zm7.93,23.57c6.1,0,9.85-3.7,9.85-7.82s-2.73-5.95-6.86-5.95h-7.6c-1,.11-5,2.09-5,6.27C131.59,213.25,134.49,217.48,141.24,217.48Zm7.17-29c0-7.23-6.21-7.66-6.21-7.66h-1.61a7.5,7.5,0,0,0-7.92,7.66c0,4,2.25,7.71,7.92,7.71A7.54,7.54,0,0,0,148.41,188.5Z"/><path class="cls-3" d="M175.25,187.81a19.48,19.48,0,0,1,6.32,1.23v-2c0-4.23-1.39-6.22-5.95-6.22a12.74,12.74,0,0,0-6.53,1.61c-.27.16-.38.05-.48-.11l-.16-.26c-.16-.27,0-.38.1-.43a13.71,13.71,0,0,1,7.07-1.77c5.25,0,6.91,2.3,6.91,7.18v14.4a.37.37,0,0,1-.37.38h-.22a.37.37,0,0,1-.37-.38v-2.41a13.31,13.31,0,0,1-8.3,3.32c-4.18,0-7.45-2.73-7.45-7.23C165.82,190.91,169.57,187.81,175.25,187.81Zm-2,13.6a11.71,11.71,0,0,0,8.3-3.7V190a21.7,21.7,0,0,0-6.32-1.23c-5.14,0-8.46,2.68-8.46,6.37C166.79,199.11,169.62,201.41,173.27,201.41Z"/><path class="cls-3" d="M200.48,199.59l.26-.38c.11-.16.27-.16.49,0a10,10,0,0,0,6.48,2.2c3.85,0,6.74-2.14,6.74-4.93,0-3-3.21-4.17-7.23-5.3-4.76-1.34-7.07-2.78-7.07-5.78,0-2.41,2.2-5.52,7.24-5.52a11.41,11.41,0,0,1,6.1,1.71.29.29,0,0,1,.11.43l-.16.27c-.11.16-.22.27-.48.11a10.67,10.67,0,0,0-5.57-1.56c-4.4,0-6.22,2.58-6.22,4.56,0,2.51,2.14,3.69,6.27,4.87,4.28,1.23,8.09,2.3,8.09,6.21,0,3.32-3.49,5.89-7.82,5.89a10.9,10.9,0,0,1-7.07-2.41C200.48,199.86,200.42,199.75,200.48,199.59Z"/><path class="cls-3" d="M233.15,181.38H230.9a.36.36,0,0,1-.32-.37v-.22a.36.36,0,0,1,.32-.37h2.25v-5.79a.36.36,0,0,1,.32-.37h.21a.37.37,0,0,1,.38.37v5.79h8.73a.37.37,0,0,1,.38.37V181a.37.37,0,0,1-.38.37h-8.73v14.73c0,3,.11,5.3,3.86,5.3a13,13,0,0,0,5.78-1.71c.22-.16.38-.06.43.1l.16.33a.33.33,0,0,1-.11.37,13.72,13.72,0,0,1-6.26,1.87c-4.66,0-4.77-2.73-4.77-6.26Z"/><path class="cls-3" d="M260.41,180.79a.37.37,0,0,1,.38-.37H261a.37.37,0,0,1,.38.37v2.84a8.68,8.68,0,0,1,7-3.75,7.18,7.18,0,0,1,4,1,.36.36,0,0,1,.11.49l-.16.26a.36.36,0,0,1-.48.11,6.35,6.35,0,0,0-3.43-.86c-4.29,0-6.59,3.75-7,4.4v16.22a.37.37,0,0,1-.38.38h-.21a.37.37,0,0,1-.38-.38Z"/><path class="cls-3" d="M297.05,179.88a11.25,11.25,0,1,1-10.87,11.19A10.95,10.95,0,0,1,297.05,179.88Zm0,21.53a10.29,10.29,0,1,0-9.91-10.34A10,10,0,0,0,297.05,201.41Z"/><path class="cls-3" d="M325.71,180.79a.36.36,0,0,1,.37-.37h.22a.36.36,0,0,1,.37.37v3a11.48,11.48,0,0,1,8.36-3.86c5.78,0,8.89,3.48,8.89,10v11.62a.37.37,0,0,1-.38.38h-.21a.37.37,0,0,1-.38-.38V189.84c0-5.84-2.78-9-7.92-9-4.77,0-7.93,3.81-8.36,4.4v16.22a.37.37,0,0,1-.37.38h-.22a.37.37,0,0,1-.37-.38Z"/><path class="cls-3" d="M372.25,179.88a11.25,11.25,0,1,1-10.87,11.19A10.95,10.95,0,0,1,372.25,179.88Zm0,21.53a10.29,10.29,0,1,0-9.91-10.34A10,10,0,0,0,372.25,201.41Z"/><path class="cls-3" d="M400.91,180.79a.36.36,0,0,1,.37-.37h.22a.36.36,0,0,1,.37.37v3a9.59,9.59,0,0,1,7.87-3.86c3.38,0,5.9,1.5,7.18,4.29a9.7,9.7,0,0,1,8-4.29c5.52,0,8.47,3.48,8.47,10v11.62a.37.37,0,0,1-.38.38h-.21a.37.37,0,0,1-.38-.38V189.84c0-5.84-2.62-9-7.5-9a9,9,0,0,0-7.6,4.29,15.27,15.27,0,0,1,.7,4.71v11.62a.37.37,0,0,1-.38.38h-.21a.37.37,0,0,1-.38-.38V189.84c0-5.84-2.62-9-7.34-9a9.35,9.35,0,0,0-7.87,4.4v16.22a.37.37,0,0,1-.37.38h-.22a.37.37,0,0,1-.37-.38Z"/><path class="cls-3" d="M452,168.26a1.09,1.09,0,0,1,1.07-1.13,1.13,1.13,0,0,1,1.08,1.13,1.08,1.08,0,0,1-1.08,1.07A1,1,0,0,1,452,168.26Zm.54,12.53a.36.36,0,0,1,.37-.37h.22a.36.36,0,0,1,.37.37v20.67a.37.37,0,0,1-.37.38h-.22a.37.37,0,0,1-.37-.38Z"/><path class="cls-3" d="M480.45,187.81a19.48,19.48,0,0,1,6.32,1.23v-2c0-4.23-1.4-6.22-5.95-6.22a12.74,12.74,0,0,0-6.53,1.61c-.27.16-.38.05-.48-.11l-.16-.26c-.17-.27,0-.38.1-.43a13.71,13.71,0,0,1,7.07-1.77c5.25,0,6.91,2.3,6.91,7.18v14.4a.37.37,0,0,1-.37.38h-.22a.37.37,0,0,1-.37-.38v-2.41a13.31,13.31,0,0,1-8.3,3.32c-4.18,0-7.45-2.73-7.45-7.23C471,190.91,474.77,187.81,480.45,187.81Zm-2,13.6a11.71,11.71,0,0,0,8.3-3.7V190a21.7,21.7,0,0,0-6.32-1.23c-5.14,0-8.46,2.68-8.46,6.37C472,199.11,474.82,201.41,478.47,201.41Z"/><path class="cls-3" d="M117.05,152.5l0-24.12-12,20.1h-2.18l-12-20v24H86.35V119.39h3.88l13.82,23.27,13.62-23.27h3.88l0,33.11Z"/><path class="cls-3" d="M152.2,144.22H134.6L131,152.5h-4.87l15-33.11h4.68l15,33.11h-5Zm-1.66-3.78-7.14-16.22-7.14,16.22Z"/><path class="cls-3" d="M187.43,152.5l-7.14-10.17c-.66,0-1.37.1-2.08.1H170V152.5H165.3V119.39h12.91c8.61,0,13.81,4.35,13.81,11.54a10.46,10.46,0,0,1-7.28,10.46l7.85,11.11Zm-.14-21.57c0-4.73-3.17-7.42-9.22-7.42h-8v14.9h8C184.12,138.41,187.29,135.66,187.29,130.93Z"/><path class="cls-3" d="M196.56,136c0-9.79,7.48-16.94,17.55-16.94,5.11,0,9.56,1.75,12.58,5.16l-3.07,3a12.27,12.27,0,0,0-9.32-3.93c-7.47,0-13,5.4-13,12.73s5.54,12.72,13,12.72a12.35,12.35,0,0,0,9.32-4l3.07,3c-3,3.4-7.47,5.2-12.63,5.2C204,152.88,196.56,145.74,196.56,136Z"/><path class="cls-3" d="M229.62,136c0-9.7,7.48-16.94,17.65-16.94s17.55,7.19,17.55,16.94-7.48,16.93-17.55,16.93S229.62,145.64,229.62,136Zm30.47,0a12.44,12.44,0,0,0-12.82-12.73c-7.43,0-12.92,5.4-12.92,12.73s5.49,12.72,12.92,12.72A12.43,12.43,0,0,0,260.09,136Z"/><path class="cls-3" d="M268.6,148.72l1.75-3.69a17.06,17.06,0,0,0,10.93,3.83c5.72,0,8.18-2.22,8.18-5.11,0-8.09-20.06-3-20.06-15.28,0-5.11,4-9.46,12.68-9.46A19.4,19.4,0,0,1,292.72,122l-1.56,3.78a17,17,0,0,0-9.08-2.7c-5.63,0-8,2.37-8,5.25,0,8.09,20,3,20,15.19,0,5.06-4.06,9.41-12.81,9.41C276.21,152.88,271.25,151.18,268.6,148.72Z"/><path class="cls-3" d="M334,144.22h-17.6l-3.64,8.28h-4.87l15-33.11h4.69l15,33.11h-5Zm-1.66-3.78-7.14-16.22L318,140.44Z"/><path class="cls-3" d="M375.55,119.39V152.5h-3.88L351.8,127.81V152.5h-4.73V119.39H351l19.87,24.69V119.39Z"/><path class="cls-3" d="M391.63,123.51H380.27v-4.12h27.39v4.12H396.31v29h-4.68Z"/><path class="cls-3" d="M409.22,136c0-9.7,7.47-16.94,17.64-16.94s17.55,7.19,17.55,16.94-7.47,16.93-17.55,16.93S409.22,145.64,409.22,136Zm30.46,0a12.43,12.43,0,0,0-12.82-12.73c-7.42,0-12.91,5.4-12.91,12.73s5.49,12.72,12.91,12.72A12.43,12.43,0,0,0,439.68,136Z"/><path class="cls-3" d="M479.7,119.39V152.5h-3.88L456,127.81V152.5h-4.73V119.39h3.88L475,144.08V119.39Z"/><path class="cls-3" d="M489.2,119.39h4.74V152.5H489.2Z"/><path class="cls-3" d="M500.75,136c0-9.7,7.47-16.94,17.64-16.94s17.55,7.19,17.55,16.94-7.48,16.93-17.55,16.93S500.75,145.64,500.75,136Zm30.46,0a12.44,12.44,0,0,0-12.82-12.73c-7.43,0-12.91,5.4-12.91,12.73s5.48,12.72,12.91,12.72A12.43,12.43,0,0,0,531.21,136Z"/><circle class="cls-3" cx="462.16" cy="193.3" r="1.96"/><circle class="cls-3" cx="442" cy="193.3" r="1.96"/><circle class="cls-3" cx="390.52" cy="193.3" r="1.96"/><circle class="cls-3" cx="351.98" cy="193.3" r="1.96"/><circle class="cls-3" cx="315.51" cy="193.3" r="1.96"/><circle class="cls-3" cx="277.08" cy="193.3" r="1.96"/><circle class="cls-3" cx="249.59" cy="193.3" r="1.96"/><circle class="cls-3" cx="222.7" cy="193.3" r="1.96"/><circle class="cls-3" cx="191.35" cy="193.3" r="1.96"/><circle class="cls-3" cx="157.33" cy="193.3" r="1.96"/><path class="cls-4" d="M249.52,83.14l15.1,1.34V81.8l-15.1,1.34ZM355,84.48l15.09-1.34h0L355,81.8Z"/><path class="cls-3" d="M294.87,86.73v.92h-7v-.73L292,82.84c1.13-1.12,1.35-1.79,1.35-2.48,0-1.15-.82-1.87-2.35-1.87a3.39,3.39,0,0,0-2.73,1.12l-.73-.63a4.47,4.47,0,0,1,3.55-1.43c2,0,3.32,1,3.32,2.7,0,1-.3,1.82-1.65,3.13l-3.41,3.35Z"/><path class="cls-3" d="M300.39,82.64c0-3.19,1.68-5.09,4-5.09s4,1.9,4,5.09-1.68,5.1-4,5.1S300.39,85.83,300.39,82.64Zm6.94,0c0-2.68-1.2-4.15-2.94-4.15s-2.95,1.47-2.95,4.15,1.2,4.15,2.95,4.15S307.33,85.32,307.33,82.64Z"/><path class="cls-3" d="M314.15,82.64c0-3.19,1.68-5.09,4-5.09s4,1.9,4,5.09-1.69,5.1-4,5.1S314.15,85.83,314.15,82.64Zm7,0c0-2.68-1.21-4.15-3-4.15S315.2,80,315.2,82.64s1.2,4.15,2.95,4.15S321.1,85.32,321.1,82.64Z"/><path class="cls-3" d="M334.87,77.63v.73l-4.19,9.29h-1.12l4.13-9.1h-5.16v1.87h-1V77.63Z"/></g></g></svg>